<svg id="圖層_1" data-name="圖層 1" xmlns="http://www.w3.org/2000/svg" viewBox="0 0 35 35"><defs><style>.cls-1{fill:#fff;}</style></defs><title>icon_service_w</title><path class="cls-1" d="M17.5,0A17.5,17.5,0,1,0,35,17.5,17.51,17.51,0,0,0,17.5,0Zm0,9.5A4.55,4.55,0,1,1,12.87,14,4.59,4.59,0,0,1,17.46,9.5Zm6.89,15.89a1.11,1.11,0,0,1-1.49-.55A4.68,4.68,0,0,0,18,22.07c-.56,0-1.12,0-1.68,0a4.46,4.46,0,0,0-4.08,2.4c-.06.08-.1.18-.15.26a1.1,1.1,0,1,1-1.93-1.07,6.65,6.65,0,0,1,5.35-3.74c.63-.08,1.27-.07,1.91-.11,1.88,0,3.74.1,5.21,1.39a14.07,14.07,0,0,1,2.17,2.62A1,1,0,0,1,24.35,25.39Z"/><path class="cls-1" d="M17.45,16.38A2.33,2.33,0,1,0,15.15,14,2.34,2.34,0,0,0,17.45,16.38Z"/></svg>