<svg id="圖層_1" data-name="圖層 1" xmlns="http://www.w3.org/2000/svg" viewBox="0 0 60 60"><defs><style>.cls-1{fill:#4d4d4d;}</style></defs><title>icon_ig</title><path class="cls-1" d="M35.74,30A5.74,5.74,0,1,1,30,24.26,5.74,5.74,0,0,1,35.74,30Z"/><path class="cls-1" d="M43.43,19.84a5.72,5.72,0,0,0-3.27-3.27A9.31,9.31,0,0,0,37,16c-1.82-.08-2.36-.1-7-.1s-5.14,0-7,.1a9.31,9.31,0,0,0-3.2.59,5.35,5.35,0,0,0-2,1.29,5.43,5.43,0,0,0-1.29,2A9.31,9.31,0,0,0,16,23c-.08,1.82-.1,2.36-.1,7s0,5.15.1,7a9.31,9.31,0,0,0,.59,3.2,5.72,5.72,0,0,0,3.27,3.27A9.31,9.31,0,0,0,23,44c1.82.09,2.36.1,7,.1s5.14,0,7-.1a9.31,9.31,0,0,0,3.2-.59,5.72,5.72,0,0,0,3.27-3.27A9.56,9.56,0,0,0,44,37c.08-1.81.1-2.36.1-7s0-5.14-.1-7A9.31,9.31,0,0,0,43.43,19.84ZM30,38.85A8.85,8.85,0,1,1,38.85,30,8.85,8.85,0,0,1,30,38.85Zm9.2-16a2.07,2.07,0,1,1,2.06-2.07A2.06,2.06,0,0,1,39.2,22.87Z"/><path class="cls-1" d="M30,0A30,30,0,1,0,60,30,30,30,0,0,0,30,0ZM47.12,37.1a12.37,12.37,0,0,1-.8,4.18,8.75,8.75,0,0,1-5,5,12.37,12.37,0,0,1-4.18.8c-1.83.09-2.42.11-7.1.11s-5.27,0-7.1-.11a12.37,12.37,0,0,1-4.18-.8,8.77,8.77,0,0,1-5-5,12.37,12.37,0,0,1-.8-4.18c-.09-1.83-.11-2.42-.11-7.1s0-5.27.11-7.1a12.37,12.37,0,0,1,.8-4.18,8.77,8.77,0,0,1,5-5,12.37,12.37,0,0,1,4.18-.8c1.83-.09,2.42-.11,7.1-.11s5.27,0,7.1.11a12.37,12.37,0,0,1,4.18.8,8.7,8.7,0,0,1,5,5,12.37,12.37,0,0,1,.8,4.18c.09,1.83.11,2.42.11,7.1S47.21,35.27,47.12,37.1Z"/></svg>