<svg id="圖層_1" data-name="圖層 1" xmlns="http://www.w3.org/2000/svg" viewBox="0 0 35 35"><defs><style>.cls-1{fill:#fff;}</style></defs><title>icon_line_w</title><path class="cls-1" d="M17.5,8.41c-5.27,0-9.56,3.43-9.56,7.64,0,3.91,3.81,7.25,8.68,7.61a.63.63,0,0,1,.59.63v2.16a12.19,12.19,0,0,0,1.53-.62,21.28,21.28,0,0,0,3.64-2.25c2.13-1.65,4.68-4.29,4.68-7.53C27.06,11.84,22.77,8.41,17.5,8.41ZM13.35,19H11c-.36,0-.62-.21-.62-.5V13.72c0-.3.28-.5.68-.5s.68.2.68.5v4h1.58c.28,0,.49.26.49.62S13.63,19,13.35,19Zm2.18-.5c0,.29-.29.5-.68.5s-.68-.2-.68-.5V13.72c0-.3.27-.5.68-.5s.68.2.68.5Zm4.64,0c0,.29-.29.5-.68.5a.75.75,0,0,1-.72-.4l-1.19-2.22v2.12c0,.29-.29.5-.68.5s-.68-.2-.68-.5V13.72c0-.3.28-.5.68-.5s.64.14.89.61l1,2V13.72c0-.3.28-.5.68-.5s.68.2.68.5Zm3-3a.54.54,0,0,1,.5.59.53.53,0,0,1-.5.56h-.91v1.06h1.86c.29,0,.5.27.5.63a.55.55,0,0,1-.5.61h-2.6a.56.56,0,0,1-.62-.5V13.72a.56.56,0,0,1,.62-.5h2.6a.55.55,0,0,1,.5.61c0,.37-.21.63-.5.63H22.22v1Z"/><path class="cls-1" d="M17.5,0A17.5,17.5,0,1,0,35,17.5,17.5,17.5,0,0,0,17.5,0Zm9.68,21.07a17,17,0,0,1-3.75,3.87c-2.63,2-5.75,3.44-6.9,3.44a.67.67,0,0,1-.67-.66V25.23a12.26,12.26,0,0,1-6.69-2.88,8.5,8.5,0,0,1-3-6.37A8.57,8.57,0,0,1,9.51,9.31a12.71,12.71,0,0,1,8-2.69,12.71,12.71,0,0,1,8,2.69A8.57,8.57,0,0,1,28.87,16,9,9,0,0,1,27.18,21.07Z"/></svg>