<svg id="圖層_1" data-name="圖層 1" xmlns="http://www.w3.org/2000/svg" viewBox="0 0 30 30"><defs><style>.cls-1{fill:#c09e79;}</style></defs><title>icon_star_S</title><path class="cls-1" d="M30,15a70.62,70.62,0,0,0-7.5-.78c-1.75-.11-3.5-.16-5.25-.19.32-.37.64-.74.95-1.13a19,19,0,0,0,2.1-3.2,19,19,0,0,0-3.2,2.1c-.39.31-.76.63-1.14.95,0-1.75-.07-3.5-.18-5.25A73.34,73.34,0,0,0,15,0a73.34,73.34,0,0,0-.78,7.5c-.11,1.75-.15,3.5-.18,5.25-.38-.32-.75-.64-1.14-.95A19,19,0,0,0,9.7,9.7a19,19,0,0,0,2.1,3.2c.31.39.63.76.95,1.14-1.75,0-3.5.07-5.25.18A73.34,73.34,0,0,0,0,15a73.34,73.34,0,0,0,7.5.78c1.75.11,3.5.15,5.25.18-.32.38-.65.75-.95,1.14a18.7,18.7,0,0,0-2.1,3.21,18.61,18.61,0,0,0,3.2-2.1c.39-.31.76-.63,1.13-.95,0,1.74.08,3.49.19,5.24A70.62,70.62,0,0,0,15,30a70.62,70.62,0,0,0,.78-7.5c.11-1.75.16-3.5.19-5.24.37.32.74.64,1.13.95a18.61,18.61,0,0,0,3.2,2.1,18.7,18.7,0,0,0-2.1-3.21c-.3-.39-.63-.76-.95-1.13,1.75,0,3.5-.08,5.25-.19A70.62,70.62,0,0,0,30,15Z"/></svg>