<svg id="圖層_1" data-name="圖層 1" xmlns="http://www.w3.org/2000/svg" viewBox="0 0 35 35"><defs><style>.cls-1{fill:#fff;}</style></defs><title>icon_ig_w</title><path class="cls-1" d="M20.85,17.5a3.35,3.35,0,1,1-3.35-3.35A3.35,3.35,0,0,1,20.85,17.5Z"/><path class="cls-1" d="M25.33,11.58a3,3,0,0,0-.75-1.16,3.14,3.14,0,0,0-1.15-.75,5.67,5.67,0,0,0-1.87-.35c-1.06-.05-1.38-.06-4.06-.06s-3,0-4.06.06a5.67,5.67,0,0,0-1.87.35,3.14,3.14,0,0,0-1.15.75,3,3,0,0,0-.75,1.16,5.54,5.54,0,0,0-.35,1.86c-.05,1.06-.06,1.38-.06,4.06s0,3,.06,4.06a5.67,5.67,0,0,0,.35,1.87,3,3,0,0,0,.75,1.15,3.14,3.14,0,0,0,1.15.75,5.67,5.67,0,0,0,1.87.35c1.06.05,1.38.06,4.06.06s3,0,4.06-.06a5.67,5.67,0,0,0,1.87-.35,3.32,3.32,0,0,0,1.9-1.9,5.42,5.42,0,0,0,.35-1.87c.05-1.06.06-1.38.06-4.06s0-3-.06-4.06A5.29,5.29,0,0,0,25.33,11.58ZM17.5,22.66a5.16,5.16,0,1,1,5.16-5.16A5.16,5.16,0,0,1,17.5,22.66Zm5.36-9.32a1.21,1.21,0,1,1,1.21-1.2A1.2,1.2,0,0,1,22.86,13.34Z"/><path class="cls-1" d="M17.5,0A17.5,17.5,0,1,0,35,17.5,17.51,17.51,0,0,0,17.5,0Zm10,21.64A7.31,7.31,0,0,1,27,24.08,5.13,5.13,0,0,1,24.08,27a7.36,7.36,0,0,1-2.44.47c-1.07.05-1.41.06-4.14.06s-3.07,0-4.14-.06A7.36,7.36,0,0,1,10.92,27,5.15,5.15,0,0,1,8,24.08a7.31,7.31,0,0,1-.47-2.44c0-1.07-.06-1.41-.06-4.14s0-3.07.06-4.14A7.36,7.36,0,0,1,8,10.92,5.15,5.15,0,0,1,10.92,8a7.36,7.36,0,0,1,2.44-.47c1.07,0,1.41-.06,4.14-.06s3.07,0,4.14.06A7.36,7.36,0,0,1,24.08,8,5.15,5.15,0,0,1,27,10.92a7.36,7.36,0,0,1,.47,2.44c.05,1.07.06,1.41.06,4.14S27.54,20.57,27.49,21.64Z"/></svg>