<svg id="圖層_1" data-name="圖層 1" xmlns="http://www.w3.org/2000/svg" viewBox="0 0 242 65"><defs><style>.cls-1{fill:#fff;}</style></defs><title>lo_logo_M</title><path class="cls-1" d="M17.41,19.26c-1.25,1.25-3.09,4-5.8,5C10.09,24.88,9.09,27.06,8,27c-.92-.07-2.54-.65-2.86-1.5l-.53-.33c-.89,4.46,1.17,20.06-.37,27A12.88,12.88,0,0,1,3.1,55.63c-1.55.78-3.1-8-2.64-11.58a109.37,109.37,0,0,0,.65-15.34c0-4,.62-10.28.44-14.09a12.06,12.06,0,0,0-.78-3.48C0,10.37,0,8.74,0,8.15,1.43,8,2.41,9.26,3.66,9.72,4.9,8,6.19,7.56,8.21,6.72A25.41,25.41,0,0,1,11.54,5c3.46-.85,3.94,1.09,5.81,1.7,1.16.37,1.5,2.08,1,3.26-1.5,3.13-1.3,4.44-1.57,7.77.26,0,2.2-.42,1.42.74a7,7,0,0,1-.77.77M8,16.38c-1.11.19-1.88-1.24-2.66-1-.07.46-.26.85-.33,1.37.13,1-.46,2.68-.2,3.39a18.09,18.09,0,0,0,3.39-3.32c.06-.2.06-.39-.2-.39m1,2.67a15.2,15.2,0,0,1-2.42,1.37c-.78.39-1.94.39-1.94,1.55,0,.78,1.6.79,1.81.93,1.63-.13,5.42-1,5.94-2.87-.24-.36.15-2.49-.4-2.7S9.74,18.8,9,19.05M12.2,8.54c-2.14-.11-2.91.66-4.46.28C7,8.62,5.32,9,5.48,9.39c.79,2.29-.65,2.87-.26,4a14.34,14.34,0,0,1,5.61-.37c.84.21,1.26.54,1.5.56a32,32,0,0,1-.13-5.09m29.38,4.05c-3.27,11.23,3.85,36.94-2.87,45.88-1.05,1.37-1.18.64-2-.32-3.78-3.68-4.94-6.77-9.2-9.21-.39,1.51-.52,3.27-1.83,4.38-2.74-2.94-1.37-12.6-1.89-16.65a17.46,17.46,0,0,0-5.94,2.16l-.07,2.22.77-.78c-.14,1.37-1.15,3.35-1.49,4.53-.77,2.71-3.51,4.5-4,5.32-.49.09-1.28-.91-1.37-1.84a3.09,3.09,0,0,1,1.11-2.66c1-1.37,2.14-4.3,1.62-5.87-1.57-.06-2.53.79-4.28.79-.77,0-3.87-1.93-3.1-2.71s5.4-.59,6.58-1.54c1.41-1.15,1-3,.77-4.26-.07-.43-.77-.77-2.32-1.16-1.06-.27-1.54-2-1.88-2.22-.26-.66.39-.59.78-.59,6.13-.67,16.19-4.93,18.21-4,1.34.62,3.7,2.9.3,3.31a8.17,8.17,0,0,0-3.56,1c.85.2,2.94,2.8,3.46,3.19a17.46,17.46,0,0,1,2.93-.26c1.44.91,2.74,1.76,2.94,3.59-2.09,1.05-4.63.26-6.79,1.05.25,1.87-.44,3.52-.52,5.36-.13,2.76.38,5.8-.07,6.32-.32.33.09.94.45,1,1.55.39,8.82,4,8.82,1.45.07-9.66.33-19.32-.52-29-.85-.52-3,.26-4.18.26-2.22-.07-4.17-.07-5.87,1.57-.52.52-.78.26-1.17-.13-4.44-3.33.65-13.58-3.59-17L21.53,5A8.24,8.24,0,0,1,24,5c1.11.2,1.7-.19,2.74-.06.64-.27,5.64-2,9.62-1.1,3.7.81,6.44,4.12,6.25,5.6a16.89,16.89,0,0,1-1,3.2M23,29.31c-1.69,1.17-4.4,1.17-5.36,1.69.53.45.66,2.8.79,3.46a35.22,35.22,0,0,0,4.89-1.57A3,3,0,0,0,23,29.31M36.41,7.7a4.22,4.22,0,0,0-2.75-.82,29.2,29.2,0,0,0-5.41.88c.46,1.24-.06,2.54-.13,3.79,1.89-1.31,6.33-.4,8.49-.53-.13-1.11,0-2.22-.2-3.32m.07,6.13c-2.74.07-5.62.85-8.29.72v3.52c1.06.18,4-.82,5.86-.35a10.08,10.08,0,0,0,2.49.35,10.27,10.27,0,0,0-.06-4.24"/><path class="cls-1" d="M99,56a2.16,2.16,0,0,1-1.54-.07c-8.07-2.49-15.25-4.67-23.52-6.53a26.29,26.29,0,0,0-7.43-.58c-1.79.13-1.86.32-3.08-1.09a9.36,9.36,0,0,0-1.09-1.21l-.06-.84,2.69-.38c.9.19,1.8-.32,2.76-.26.51-1,1.41-2,1-3.2-.77-.58-1.35-1.41-2.18-2-1.54-2.24-2.63-4.8-.83-7.43.06-.51.38-1-.2-1.35-1-.58-4.48-4.23-4.35-5.32.19-2.43,4-5.19,4.8-8.07-1-.64-1.79-2.82-2.37-3.84-.45-.33-.45-.9-1.09-1l-.06-.65c2.63,0,7.62,1.28,8.46,4.17.32,1.09,0,3.39-1.16,3.91-2.24-.9-4,0-5.38,1.92a3.52,3.52,0,0,0-1.92,2.24c2.43,1.41,7.37,1.92,8.46,4.81s-2.5,5.7-2.37,7.17c2.11,2.38,6.15,4.87,3.07,8.59,5.06.9,10.77,3.33,15.57,3.78.13-1.73-.38-2.24-.25-4.23,0-.38-.32-2.05-.32-2.94-1.93.89-5.58,1.85-7,3-1.92.44-5.8-1-5.51-2.31.21-.93,10.06-3.33,12-6.41-1.48.2-3.14,2-4.62.83-2.62-2.17-4.35-11.85-1.34-14.28a32.62,32.62,0,0,0,3.39-3.27c-2.62-2-1.66-1.28-3.65-3.59,1.67.06,5.38-1.28,6.79-2.18.65-1.28-1-1.41-1.15-2.63-1.15-.83-5.57.52-5.57,1.86-1.29,1.48-4,11.21-7.12,8.27-1.54-6.73,3-6.34,3.78-12.18a22.34,22.34,0,0,1,.64-3.46c.39,1.29.77,4.17,1.35,5.13l.71-.71C85,6.73,94,3.59,100.49,5.39c3.13.89,6.47,5.83,4,7.69-.9.7-6.41,1.21-7.82,1.34s-.25,2.76-2,2.63a17.67,17.67,0,0,1-3,1.28.9.9,0,0,0-.19,1.09c1.86-.19,4.55-.51,6.28.06,2.11.77,2.76,2.69,4.36,4a4.09,4.09,0,0,1-.77,2.95c-1,.25-2.95,7.88-6.41,7.62l.83.58c3.65,1.48,5.77.83,8.27,3.72.06.57.77,1.6-.32,1.79a15.43,15.43,0,0,1-2.44-.19c-3.45-.26-7-.39-10.31.9.32,3.26-.84,5.44-.64,8.2,1.85.77,19.73,1.22,23,1.41.58,1.92-12.37,5.64-14.35,5.51M85.68,19.87a12.08,12.08,0,0,0-3.27,1.47c-.44.77-1.6,1.86-1.15,2.82a13.89,13.89,0,0,1,5.06-2.69c1.35-.51.32-3.46-.64-1.6m1,4.48c-1.09.52-3.27.52-4.49.64L82,27.12c.83-.51,3.09.77,5.06-.71-.07-.19-.19-1.93-.32-2.06m-4.62,5.27c.07.9.13.24.26,1.21.9,4.16,2.66,1.31,4.65.54a1.46,1.46,0,0,0,0-1.93c-1.07-.84-3.92.55-4.91.18m1.35,9.54c.71.06,3.52.06,3.72-.65l.32-2.17a20.15,20.15,0,0,1-4,2.82M89,9c1,.45,2.25.7,2.7,1.86.44.25.44.77.83,1.15a6.34,6.34,0,0,0,1.92.51c1.09-.45,4.74-2.62,5.07-3.65C98.18,6.54,91,8.27,89,9m2.24,20A9.65,9.65,0,0,1,91,31c.52.32,1.67-.19,2.18.06.14-.07-.45-.8,0-1.25a11.53,11.53,0,0,0,1.66-2.91c-1,1-2.51,1.36-3.6,2.13M94,34c-.64.32-2.82,1.28-2.82,2,.13.26.06.58.13.83a13.87,13.87,0,0,0,4.61-.57A5.65,5.65,0,0,0,94,34M92.8,22.5c-1.93.75-1.55,2.36-1.55,3.07.52,0,3.34-.19,3.85.39.83-.58,1.22-4,.58-4.17s-2.25.46-2.88.71"/><path class="cls-1" d="M226,39.56c-.7.33-.57,5.42-.57,6.2,0,3.16,1.11,16-.24,18.79-.36.7-.68.6-1.45-.4-1.36-1.74-3.08-5.54-2.75-6.56l.91.7a136.88,136.88,0,0,0-.54-17.76c-.77-.13-2.67-.26-3.38-.45-2.71.32-3.05,1-4,4.06-.58,2.13-2.79,9.59-4.27,10.82a3.68,3.68,0,0,1-2-3.92,5.45,5.45,0,0,0-.73-3.28c-.36-.73.06-4.8.13-5.3-.49-.16-5.14,1.17-5.59,1.3-2,.73-4.84,2.19-7,2.39-.62.16-4.84-1.65-5.09-2.49.38-1.1,1.19-1,2.12-1.16,4.71-.58,9.53-1.76,14.27-2.39,2.65-.36,2.28-.13,2.28-4l1.52.13c.07.77,1.16,1.91.58,2.68a20,20,0,0,0,7-1.72,6.65,6.65,0,0,0,3.32-3c.9-.51,1.21-15.28-.28-16.9-4.66-1.35-3.11.2-6.75,2.52l1.11.52c.58-.26.9-.91,1.55-.84a5,5,0,0,1,2.77,0c1.42.45.69,2.13,1.34,3.16.32,1.93-2.18,1.87-1.27,3.16.32.45,0,.77.43,1.16,1.74,1.74.6,2.52-.56,4,.78.32.56,1,1.14,1.55.13,2.77-.71,1.44-2.32,2.86-.9.26-1.81,0-2.58.52a26.77,26.77,0,0,1-4.09.88c-1.56.2-3,.95-3.28.73-.72-.54-.42-2.1-.48-2.78-1.43-2.49-.28-9.2.76-12a1.82,1.82,0,0,0,.09-.51.79.79,0,0,1,.34-.56.5.5,0,0,1,.51-.09c.56.19.49.94,1.05,1.11.39-1,1.18-1.27.79-2.37a14.65,14.65,0,0,0-2.67-3.13c-1.11-1.07-2.23-2-2.63-1.9a4.21,4.21,0,0,1-1.55.26c-1.94.45-2.84,2.64-4.84,3a4.77,4.77,0,0,1-.76-4.64c.2-.52.2-1.42,1-1.49a65.08,65.08,0,0,0,5.48-4.19c.72-.64,3.94-4.77,3.36-5.61-.19-.25-.83-1.23-.42-1.44a2.64,2.64,0,0,1,1.46-.36,1.19,1.19,0,0,1,.83.64c.24.24.26.9.63,1.54s1.18,1.5,1.29,1.88a2.41,2.41,0,0,1,.53,2.49c-1,1.84-3.77,4-4.53,4.6.06.71,1.22.13,1.61,0,3.29-1.48,3-1.33,5-3.46,1.87-1.87,1.68-4.3,4.14-5.4,1.07-.47.9-1.78.9-2.36,2.53-1.77,4.75.11,6.41,2a1.13,1.13,0,0,1,.16.26c.8,1.73,6.15-.79,6.52,1.85,3.87,2.91-3.77,7.23-6,7.94-1.68.51-4.21.32-5.89.77,5-.13,5,13.61,4.32,16.39-.25,1.29-.49,4.24.32,5.76h.59l.83-.07c2,.2,11.71-1,12.81.46.84,1,1.94,2.38,1.42,3.8-1.94.65-12.57-.19-15.09-.26m-15.46,3c-.52.64-1.26.92.29,4.6.84-1.29.85-3.29,1.24-4.52-.78.06-.83-.28-1.53-.08M216.1,30.3a12.61,12.61,0,0,1-4,1.29,12.55,12.55,0,0,0,2.58-1.74c-.85-.26-3.19-.05-3.83-.56a17.93,17.93,0,0,0-.45,4.17c2.32-.37,3.91,0,5.75-1.15a.38.38,0,0,0,.15-.43c-.16-.6.12-1.79-.21-1.58m-5-6.82a4.61,4.61,0,0,1-.19,1.36c.13.83-.52,1.67-.32,2.45.77-.13,4.62-.5,5.2-1L217,24.45c-1.1-.19-5-.45-5.91-1M221.57,7.33a5.87,5.87,0,0,1-1.41-2.43c-.33-1-1.68-.06-2.07.33-2.12,2.77-2.86,5.86-4.54,9,4.58-.64,8.16-2.9,12.09-5.09.45-.26,2-1.34,1-1.55-2.56-.58-3.43,1.53-5.11-.22"/><path class="cls-1" d="M161.41,39.56c-.71.33-.58,5.42-.58,6.2,0,3.16,1.12,16-.24,18.79-.35.7-.67.6-1.44-.4-1.36-1.74-3.08-5.54-2.75-6.56l.9.7a135.12,135.12,0,0,0-.53-17.76c-.78-.13-2.67-.26-3.38-.45-2.71.32-3.06,1-4,4.06-.58,2.13-2.8,9.59-4.28,10.82a3.68,3.68,0,0,1-2-3.92,5.53,5.53,0,0,0-.73-3.28c-.36-.73.05-4.8.13-5.3-.49-.16-5.14,1.17-5.59,1.3-2,.73-4.84,2.19-7,2.39-.62.16-4.84-1.65-5.1-2.49.39-1.1,1.2-1,2.13-1.16,4.71-.58,9.53-1.76,14.26-2.39,2.66-.36,2.29-.13,2.29-4l1.52.13c.06.77,1.16,1.91.58,2.68a20.08,20.08,0,0,0,7-1.72,6.7,6.7,0,0,0,3.32-3c.9-.51,1.2-15.28-.28-16.9-4.67-1.35-3.12.2-6.76,2.52l1.12.52c.58-.26.9-.91,1.55-.84a5,5,0,0,1,2.77,0c1.42.45.69,2.13,1.34,3.16.32,1.93-2.18,1.87-1.27,3.16.32.45,0,.77.43,1.16,1.74,1.74.6,2.52-.56,4,.77.32.56,1,1.14,1.55.13,2.77-.71,1.44-2.32,2.86-.91.26-1.81,0-2.58.52a27.09,27.09,0,0,1-4.1.88c-1.55.2-3,.95-3.27.73-.73-.54-.42-2.1-.49-2.78-1.43-2.49-.27-9.2.77-12a1.82,1.82,0,0,0,.09-.51.82.82,0,0,1,.34-.56.5.5,0,0,1,.51-.09c.56.19.49.94,1,1.11.39-1,1.19-1.27.8-2.37a15,15,0,0,0-2.67-3.13c-1.11-1.07-2.24-2-2.64-1.9a4.17,4.17,0,0,1-1.55.26c-1.93.45-2.83,2.64-4.84,3a4.77,4.77,0,0,1-.75-4.64c.19-.52.19-1.42,1-1.49a65.08,65.08,0,0,0,5.48-4.19c.71-.64,3.94-4.77,3.36-5.61-.19-.25-.83-1.23-.42-1.44a2.63,2.63,0,0,1,1.45-.36,1.19,1.19,0,0,1,.84.64c.24.24.25.9.62,1.54s1.19,1.5,1.29,1.88a2.39,2.39,0,0,1,.53,2.49c-.95,1.84-3.76,4-4.53,4.6.07.71,1.23.13,1.62,0,3.29-1.48,3-1.33,5-3.46,1.87-1.87,1.69-4.3,4.14-5.4,1.08-.47.9-1.78.9-2.36,2.53-1.77,4.75.11,6.42,2a1.1,1.1,0,0,1,.15.26c.81,1.73,6.15-.79,6.53,1.85,3.87,2.91-3.77,7.23-6,7.94-1.68.51-4.22.32-5.89.77,5-.13,5,13.61,4.32,16.39-.26,1.29-.5,4.24.32,5.76h.58l.84-.07c2,.2,11.71-1,12.81.46.83,1,1.93,2.38,1.42,3.8-1.94.65-12.57-.19-15.09-.26m-15.47,3c-.51.64-1.25.92.3,4.6.84-1.29.84-3.29,1.23-4.52-.77.06-.82-.28-1.53-.08m5.55-12.28a12.66,12.66,0,0,1-4,1.29,12,12,0,0,0,2.58-1.74c-.84-.26-3.18-.05-3.82-.56a18.5,18.5,0,0,0-.46,4.17c2.33-.37,3.92,0,5.76-1.15a.38.38,0,0,0,.15-.43c-.16-.6.11-1.79-.21-1.58m-5.05-6.82a4.61,4.61,0,0,1-.19,1.36c.13.83-.52,1.67-.33,2.45.78-.13,4.63-.5,5.21-1l1.22-1.82c-1.1-.19-5-.45-5.91-1M157,7.33a5.89,5.89,0,0,1-1.42-2.43c-.32-1-1.67-.06-2.06.33-2.13,2.77-2.87,5.86-4.54,9,4.58-.64,8.15-2.9,12.09-5.09.45-.26,2-1.34,1-1.55-2.55-.58-3.42,1.53-5.1-.22"/></svg>